<svg id="Layer_1" data-name="Layer 1" xmlns="http://www.w3.org/2000/svg" xmlns:xlink="http://www.w3.org/1999/xlink" viewBox="0 0 177.56 60.64"><defs><style>.cls-1{fill:none;}.cls-2{clip-path:url(#clip-path);}.cls-3{fill:url(#linear-gradient);}.cls-4{clip-path:url(#clip-path-2);}.cls-5{fill:url(#linear-gradient-2);}.cls-6{fill:#fff;}.cls-7{clip-path:url(#clip-path-3);}.cls-8{fill:url(#linear-gradient-3);}.cls-9{clip-path:url(#clip-path-4);}.cls-10{fill:url(#linear-gradient-4);}.cls-11{fill:url(#linear-gradient-5);}</style><clipPath id="clip-path"><path class="cls-1" d="M27.2,15.64V25H18.65A5.55,5.55,0,0,0,13,30.52a5.37,5.37,0,0,0,1.64,3.86,5.53,5.53,0,0,0,4,1.52H39.2V15.64a6,6,0,0,0-12,0"/></clipPath><linearGradient id="linear-gradient" x1="6352.74" y1="1224.65" x2="6353.84" y2="1224.65" gradientTransform="matrix(0, 27.46, 27.46, 0, -33597.27, -174405.99)" gradientUnits="userSpaceOnUse"><stop offset="0" stop-color="#009a4f"/><stop offset="1" stop-color="#15ff79"/></linearGradient><clipPath id="clip-path-2"><path class="cls-1" d="M27.2,25V45.25a5.92,5.92,0,0,0,2,4,6.14,6.14,0,0,0,4.2,1.64,5.81,5.81,0,0,0,5.84-5.61V35.9h9.06a5.46,5.46,0,1,0,0-10.91Z"/></clipPath><linearGradient id="linear-gradient-2" x1="6842.55" y1="1493.67" x2="6843.64" y2="1493.67" gradientTransform="matrix(0, -24.33, -24.33, 0, 36384.97, 166542.48)" xlink:href="#linear-gradient"/><clipPath id="clip-path-3"><path class="cls-1" d="M7.65,18l.52-.47c4.95-4.47,12-7.36,17.9-8.78a22.67,22.67,0,0,1,7.41-1.23A23,23,0,0,1,46.71,49.21a50.58,50.58,0,0,0,13-7.23A28.68,28.68,0,0,0,7.65,18"/></clipPath><linearGradient id="linear-gradient-3" x1="6420.91" y1="1403.97" x2="6422.01" y2="1403.97" gradientTransform="matrix(49.93, 0, 0, -49.93, -320614.05, 70131.34)" xlink:href="#linear-gradient"/><clipPath id="clip-path-4"><path class="cls-1" d="M7.84,19.25c-.2.14-.6.4-1,.67A28.68,28.68,0,0,0,58.42,44.6a46.38,46.38,0,0,1-15.73,6.88A23,23,0,0,1,20.13,11.77,57.8,57.8,0,0,0,7.84,19.25"/></clipPath><linearGradient id="linear-gradient-4" x1="6418.53" y1="1404.3" x2="6419.62" y2="1404.3" gradientTransform="matrix(49.12, 0, 0, -49.12, -315296.91, 69019.78)" xlink:href="#linear-gradient"/><linearGradient id="linear-gradient-5" x1="67.5" y1="28.63" x2="172.75" y2="28.63" gradientTransform="matrix(1, 0, 0, 1, 0, 0)" xlink:href="#linear-gradient"/></defs><g class="cls-2"><rect class="cls-3" x="7.72" y="4.57" width="36.79" height="36.79" transform="translate(-8.59 25.2) rotate(-45)"/></g><g class="cls-4"><rect class="cls-5" x="22.66" y="19.91" width="35.74" height="36.04" transform="translate(-12.58 54.06) rotate(-60)"/></g><path class="cls-6" d="M70.94,48.05a3.37,3.37,0,0,1,0-6.74,3.06,3.06,0,0,1,3.22,3.23,3.52,3.52,0,0,1,0,.64H69.33a1.53,1.53,0,0,0,1.57,1.5,1.35,1.35,0,0,0,1.31-.78H74a3,3,0,0,1-3,2.15m-1.59-4h3.1a1.46,1.46,0,0,0-1.56-1.41,1.52,1.52,0,0,0-1.54,1.41"/><path class="cls-6" d="M78.17,41.31a2.92,2.92,0,0,1,3.08,2.31H79.47a1.28,1.28,0,0,0-1.31-.91c-.92,0-1.54.7-1.54,2s.62,2,1.54,2a1.26,1.26,0,0,0,1.31-.9h1.78a3,3,0,0,1-3.08,2.31,3.13,3.13,0,0,1-3.23-3.37,3.13,3.13,0,0,1,3.23-3.37"/><path class="cls-6" d="M85.36,48.05a3.37,3.37,0,1,1,3.41-3.37,3.27,3.27,0,0,1-3.41,3.37m0-1.44a1.73,1.73,0,0,0,1.71-1.93,1.69,1.69,0,1,0-3.35,0c0,1.3.76,1.93,1.64,1.93"/><path class="cls-6" d="M92.49,48.05c-1.64,0-2.79-.95-2.86-2.17H91.3a1.07,1.07,0,0,0,1.17.88c.65,0,1-.3,1-.68,0-1.16-3.69-.42-3.69-2.81,0-1.09,1-2,2.58-2A2.34,2.34,0,0,1,95,43.47H93.42a1,1,0,0,0-1.1-.85c-.61,0-.93.24-.93.62,0,1.19,3.62.45,3.67,2.84,0,1.12-1,2-2.57,2"/><polygon class="cls-6" points="100.91 41.41 102.67 41.41 98.62 51.04 96.86 51.04 98.28 47.78 95.66 41.41 97.51 41.41 99.2 45.98 100.91 41.41"/><path class="cls-6" d="M106.05,48.05c-1.64,0-2.78-.95-2.85-2.17h1.66a1.09,1.09,0,0,0,1.18.88c.65,0,1-.3,1-.68,0-1.16-3.69-.42-3.69-2.81,0-1.09,1-2,2.58-2a2.34,2.34,0,0,1,2.63,2.16H107a1,1,0,0,0-1.09-.85c-.62,0-.94.24-.94.62,0,1.19,3.63.45,3.67,2.84,0,1.12-1,2-2.57,2"/><path class="cls-6" d="M110.24,42.77h-.78V41.41h.78V39.8h1.66v1.61h1.46v1.36H111.9v3.16c0,.44.18.63.7.63h.76V48h-1c-1.25,0-2.09-.53-2.09-2Z"/><path class="cls-6" d="M117.41,48.05a3.37,3.37,0,0,1,0-6.74,3.06,3.06,0,0,1,3.22,3.23,3.52,3.52,0,0,1,0,.64h-4.77a1.52,1.52,0,0,0,1.56,1.5,1.35,1.35,0,0,0,1.31-.78h1.78a3,3,0,0,1-3,2.15m-1.59-4h3.1a1.46,1.46,0,0,0-1.56-1.41,1.52,1.52,0,0,0-1.54,1.41"/><path class="cls-6" d="M131,44.34a1.46,1.46,0,1,0-2.91,0V48h-1.65V44.34a1.47,1.47,0,1,0-2.93,0V48h-1.65V41.41h1.65v.79a2.4,2.4,0,0,1,1.93-.88,2.5,2.5,0,0,1,2.3,1.25A2.58,2.58,0,0,1,130,41.32a2.53,2.53,0,0,1,2.67,2.79V48H131Z"/><g class="cls-7"><rect class="cls-8" x="7.65" y="1.77" width="54.5" height="47.44"/></g><g class="cls-9"><rect class="cls-10" x="4.8" y="11.77" width="53.62" height="47.36"/></g><path class="cls-11" d="M83.82,39H79.38L72,27.79V39H67.5V20.8H72l7.43,11.3V20.8h4.44Zm3.55-16.7a2.25,2.25,0,0,1-.74-1.7,2.28,2.28,0,0,1,.74-1.73,2.68,2.68,0,0,1,1.91-.69,2.64,2.64,0,0,1,1.88.69,2.25,2.25,0,0,1,.74,1.73,2.21,2.21,0,0,1-.74,1.7,2.64,2.64,0,0,1-1.88.69A2.68,2.68,0,0,1,87.37,22.34Zm4.12,2.2V39H87V24.54Zm23.88-3.74V39h-4.44V28.1L106.85,39h-3.59l-4.11-11V39H94.71V20.8H100l5.12,12.62,5.07-12.62ZM123,24.36v3.69h6v3.43h-6v4h6.73V39H118.57V20.8h11.17v3.56Zm21.49-2.42a8.14,8.14,0,0,1,3.34,3.21A9.4,9.4,0,0,1,149,29.92a9.4,9.4,0,0,1-1.18,4.75,8.13,8.13,0,0,1-3.35,3.22,10.57,10.57,0,0,1-5,1.15h-6.84V20.8h6.84A10.65,10.65,0,0,1,144.5,21.94Zm-1.4,11.87a5.2,5.2,0,0,0,1.4-3.89A5.35,5.35,0,0,0,143.1,26a5.35,5.35,0,0,0-3.93-1.4h-2.1v10.6h2.1A5.38,5.38,0,0,0,143.1,33.81Zm8.74-11.47a2.25,2.25,0,0,1-.74-1.7,2.28,2.28,0,0,1,.74-1.73,2.68,2.68,0,0,1,1.91-.69,2.64,2.64,0,0,1,1.88.69,2.26,2.26,0,0,1,.75,1.73,2.22,2.22,0,0,1-.75,1.7,2.64,2.64,0,0,1-1.88.69A2.68,2.68,0,0,1,151.84,22.34Zm4.12,2.2V39h-4.44V24.54ZM167.76,39,165,35l-2.34,4h-4.81l4.78-7.41-4.91-7.09h5l2.78,4,2.34-4h4.81l-4.86,7.3,5,7.2Z"/></svg>